STARTFONT 2.1
COMMENT Recovered from 40vr.qfasl (MIT CADR System 46 serialized QFASL FONT object)
FONT MIT-CADR-QFASL-40VR
SIZE 40 72 72
FONTBOUNDINGBOX 64 40 0 -10
STARTPROPERTIES 2
FONT_ASCENT 30
FONT_DESCENT 10
ENDPROPERTIES
CHARS 128
STARTCHAR C0000
ENCODING -1 0
SWIDTH 0 0
DWIDTH 0 0
BBX 0 40 0 -10
BITMAP
00
00
00
00
00
00
00
00
00
00
00
00
00
00
00
00
00
00
00
00
00
00
00
00
00
00
00
00
00
00
00
00
00
00
00
00
00
00
00
00
ENDCHAR
STARTCHAR C0001
ENCODING -1 1
SWIDTH 350 0
DWIDTH 14 0
BBX 32 40 0 -10
BITMAP
00000000
00000000
00000000
00000000
00000000
00000000
00000000
06000000
06000000
06000000
06000000
06000000
06000000
06000000
06000000
06000000
06000000
06000000
06000000
06000000
06000000
06000000
06000000
C6300000
E6700000
76E00000
3FC00000
1F800000
0F000000
06000000
00000000
00000000
00000000
00000000
00000000
00000000
00000000
00000000
00000000
00000000
ENDCHAR
STARTCHAR C0002
ENCODING -1 2
SWIDTH 700 0
DWIDTH 28 0
BBX 32 40 0 -10
BITMAP
00000000
00000000
00000000
00000000
00000000
00000000
00000000
00000000
00000000
00000000
00000000
00000000
00000380
00000700
00000E00
00001C00
00001C00
0FC03800
1FE07000
3FF06000
7078E000
E01FC000
E00FC000
E0078000
E00F0000
E01F8000
707BC1C0
3FF1E380
1FE0FF80
0FC07E00
00000000
00000000
00000000
00000000
00000000
00000000
00000000
00000000
00000000
00000000
ENDCHAR
STARTCHAR C0003
ENCODING -1 3
SWIDTH 625 0
DWIDTH 25 0
BBX 32 40 0 -10
BITMAP
00000000
0000F000
0001F800
00039C00
00070E00
000E0600
001C0600
00380E00
00380E00
00701C00
00703800
00E07000
00E0E000
01C1C000
01C3C000
0383E000
0380F000
07003800
07001C00
0E000C00
0E000C00
0C000C00
1C400C00
1C701C00
38787800
383FF000
380FC000
78000000
70000000
70000000
70000000
F0000000
00000000
00000000
00000000
00000000
00000000
00000000
00000000
00000000
ENDCHAR
STARTCHAR C0004
ENCODING -1 4
SWIDTH 600 0
DWIDTH 24 0
BBX 32 40 0 -10
BITMAP
00000000
00000000
00000000
00000000
00000000
00000000
00000000
00000000
00000000
00000000
00700000
00F80000
00F80000
01FC0000
01DC0000
03DE0000
038E0000
078F0000
07070000
0F078000
0E038000
1E03C000
1C01C000
3C01E000
3800E000
7800F000
70007000
F0007800
E0003800
E0003800
00000000
00000000
00000000
00000000
00000000
00000000
00000000
00000000
00000000
00000000
ENDCHAR
STARTCHAR C0005
ENCODING -1 5
SWIDTH 375 0
DWIDTH 15 0
BBX 32 40 0 -10
BITMAP
00000000
00000000
00000000
00000000
00000000
00000000
00000000
00000000
00000000
00000000
00000000
00000000
00000000
00000000
00000000
00000000
FFF80000
FFF80000
FFF80000
00380000
00380000
00380000
00380000
00380000
00000000
00000000
00000000
00000000
00000000
00000000
00000000
00000000
00000000
00000000
00000000
00000000
00000000
00000000
00000000
00000000
ENDCHAR
STARTCHAR C0006
ENCODING -1 6
SWIDTH 350 0
DWIDTH 14 0
BBX 32 40 0 -10
BITMAP
00000000
00000000
00000000
00000000
00000000
00000000
00000000
00000000
00F00000
03F00000
07800000
0E000000
1C000000
38000000
78000000
70000000
70000000
F0000000
FFF00000
FFF00000
F0000000
70000000
70000000
78000000
38000000
1C000000
0E000000
07800000
03F00000
00F00000
00000000
00000000
00000000
00000000
00000000
00000000
00000000
00000000
00000000
00000000
ENDCHAR
STARTCHAR C0007
ENCODING -1 7
SWIDTH 500 0
DWIDTH 20 0
BBX 32 40 0 -10
BITMAP
00000000
00000000
00000000
00000000
00000000
00000000
00000000
00000000
00000000
FFF80000
FFFF0000
FFFF8000
1C1FC000
1C1C0000
1C1C0000
1C1C0000
1C1C0000
1C1C0000
1C1C0000
1C1C0000
1C1C0000
1C1C0000
1C1C0000
1C1C0000
FC1C0000
FC1FC000
000FC000
00000000
00000000
00000000
00000000
00000000
00000000
00000000
00000000
00000000
00000000
00000000
00000000
00000000
ENDCHAR
STARTCHAR C0008
ENCODING -1 8
SWIDTH 500 0
DWIDTH 20 0
BBX 32 40 0 -10
BITMAP
00000000
00000000
00000000
70000000
7C000000
3E000000
0E000000
07000000
03800000
03800000
03C00000
01C00000
01C00000
01C00000
03E00000
03E00000
07700000
0E780000
0E380000
1C3C0000
3C1C0000
781E0000
F00F0000
E007C000
E003C000
0001C000
00000000
00000000
00000000
00000000
00000000
00000000
00000000
00000000
00000000
00000000
00000000
00000000
00000000
00000000
ENDCHAR
STARTCHAR C0009
ENCODING -1 9
SWIDTH 0 0
DWIDTH 0 0
BBX 0 40 0 -10
BITMAP
00
00
00
00
00
00
00
00
00
00
00
00
00
00
00
00
00
00
00
00
00
00
00
00
00
00
00
00
00
00
00
00
00
00
00
00
00
00
00
00
ENDCHAR
STARTCHAR C000A
ENCODING -1 10
SWIDTH 0 0
DWIDTH 0 0
BBX 0 40 0 -10
BITMAP
00
00
00
00
00
00
00
00
00
00
00
00
00
00
00
00
00
00
00
00
00
00
00
00
00
00
00
00
00
00
00
00
00
00
00
00
00
00
00
00
ENDCHAR
STARTCHAR C000B
ENCODING -1 11
SWIDTH 325 0
DWIDTH 13 0
BBX 32 40 0 -10
BITMAP
0E000000
1F000000
3F800000
7FC00000
EEE00000
CE600000
8E200000
0E000000
0E000000
0E000000
0E000000
0E000000
0E000000
0E000000
0E000000
0E000000
0E000000
0E000000
0E000000
0E000000
0E000000
0E000000
0E000000
0E000000
0E000000
0E000000
0E000000
0E000000
0E000000
0E000000
0E000000
0E000000
00000000
00000000
00000000
00000000
00000000
00000000
00000000
00000000
ENDCHAR
STARTCHAR C000C
ENCODING -1 12
SWIDTH 0 0
DWIDTH 0 0
BBX 0 40 0 -10
BITMAP
00
00
00
00
00
00
00
00
00
00
00
00
00
00
00
00
00
00
00
00
00
00
00
00
00
00
00
00
00
00
00
00
00
00
00
00
00
00
00
00
ENDCHAR
STARTCHAR C000D
ENCODING -1 13
SWIDTH 0 0
DWIDTH 0 0
BBX 0 40 0 -10
BITMAP
00
00
00
00
00
00
00
00
00
00
00
00
00
00
00
00
00
00
00
00
00
00
00
00
00
00
00
00
00
00
00
00
00
00
00
00
00
00
00
00
ENDCHAR
STARTCHAR C000E
ENCODING -1 14
SWIDTH 725 0
DWIDTH 29 0
BBX 32 40 0 -10
BITMAP
00000000
00000000
00000000
00000000
00000000
00000000
00000000
00000000
00000000
00000000
00000000
00000000
00000000
0FC07E00
1FE0FF00
38F1E380
707BC1C0
E03F80E0
C01F0060
C00E0060
C00E0060
C00E0060
C01F0060
E03F80E0
707BC1C0
38F1E380
1FE0FF00
0FC07E00
00000000
00000000
00000000
00000000
00000000
00000000
00000000
00000000
00000000
00000000
00000000
00000000
ENDCHAR
STARTCHAR C000F
ENCODING -1 15
SWIDTH 475 0
DWIDTH 19 0
BBX 32 40 0 -10
BITMAP
70000000
78000000
7C000000
3E000000
1F000000
0F800000
07C00000
01E00000
00F00000
00F80000
007C0000
003C0000
003E0000
001E0000
000F0000
000F0000
00070000
07E70000
0FFF0000
3FFF8000
7C1F8000
F0078000
E0038000
E0038000
E0038000
E0038000
E0038000
70070000
7C1F0000
3FFE0000
0FF80000
07F00000
00000000
00000000
00000000
00000000
00000000
00000000
00000000
00000000
ENDCHAR
STARTCHAR C0010
ENCODING -1 16
SWIDTH 525 0
DWIDTH 21 0
BBX 32 40 0 -10
BITMAP
00000000
00000000
00000000
00000000
00000000
00000000
00000000
00000000
00000000
00000000
00000000
00000000
00000000
0FFFE000
1FFFE000
3FFFE000
78000000
F0000000
E0000000
E0000000
E0000000
E0000000
F0000000
78000000
3FFFE000
1FFFE000
0FFFE000
00000000
00000000
00000000
00000000
00000000
00000000
00000000
00000000
00000000
00000000
00000000
00000000
00000000
ENDCHAR
STARTCHAR C0011
ENCODING -1 17
SWIDTH 525 0
DWIDTH 21 0
BBX 32 40 0 -10
BITMAP
00000000
00000000
00000000
00000000
00000000
00000000
00000000
00000000
00000000
00000000
00000000
00000000
00000000
FFFE0000
FFFF0000
FFFF8000
0003C000
0001E000
0000E000
0000E000
0000E000
0000E000
0001E000
0003C000
FFFF8000
FFFF0000
FFFE0000
00000000
00000000
00000000
00000000
00000000
00000000
00000000
00000000
00000000
00000000
00000000
00000000
00000000
ENDCHAR
STARTCHAR C0012
ENCODING -1 18
SWIDTH 400 0
DWIDTH 16 0
BBX 32 40 0 -10
BITMAP
00000000
00000000
00000000
00000000
00000000
00000000
00000000
00000000
00000000
00000000
00000000
00000000
0FC00000
1FE00000
3FF00000
78780000
F03C0000
E01C0000
E01C0000
E01C0000
E01C0000
E01C0000
E01C0000
E01C0000
E01C0000
E01C0000
E01C0000
E01C0000
E01C0000
E01C0000
00000000
00000000
00000000
00000000
00000000
00000000
00000000
00000000
00000000
00000000
ENDCHAR
STARTCHAR C0013
ENCODING -1 19
SWIDTH 400 0
DWIDTH 16 0
BBX 32 40 0 -10
BITMAP
00000000
00000000
00000000
00000000
00000000
00000000
00000000
00000000
00000000
00000000
00000000
00000000
E01C0000
E01C0000
E01C0000
E01C0000
E01C0000
E01C0000
E01C0000
E01C0000
E01C0000
E01C0000
E01C0000
E01C0000
E01C0000
F03C0000
78780000
3FF00000
1FE00000
0FC00000
00000000
00000000
00000000
00000000
00000000
00000000
00000000
00000000
00000000
00000000
ENDCHAR
STARTCHAR C0014
ENCODING -1 20
SWIDTH 500 0
DWIDTH 20 0
BBX 32 40 0 -10
BITMAP
00000000
00000000
00000000
00000000
00000000
E001C000
E001C000
E001C000
70038000
70038000
70038000
38070000
38070000
38070000
1FFF0000
1FFE0000
1FFE0000
0E1C0000
0E1C0000
0E1C0000
07380000
07380000
07380000
03F00000
03F00000
03F00000
01E00000
01E00000
00C00000
00C00000
00000000
00000000
00000000
00000000
00000000
00000000
00000000
00000000
00000000
00000000
ENDCHAR
STARTCHAR C0015
ENCODING -1 21
SWIDTH 450 0
DWIDTH 18 0
BBX 32 40 0 -10
BITMAP
00000000
00000000
00000000
00000000
FFFF0000
FFFF0000
FFFF0000
00070000
00070000
00070000
00070000
00070000
00070000
00070000
00070000
07FF0000
07FF0000
07FF0000
00070000
00070000
00070000
00070000
00070000
00070000
00070000
00070000
00070000
FFFF0000
FFFF0000
FFFF0000
00000000
00000000
00000000
00000000
00000000
00000000
00000000
00000000
00000000
00000000
ENDCHAR
STARTCHAR C0016
ENCODING -1 22
SWIDTH 500 0
DWIDTH 20 0
BBX 32 40 0 -10
BITMAP
00000000
00000000
00000000
00000000
00000000
00000000
00000000
00000000
00000000
00000000
00000000
00000000
03F00000
0FFC0000
1C0E0000
38070000
78078000
7C0F8000
E739C000
C3F0C000
C0C0C000
C0C0C000
C3F0C000
E739C000
7C0F8000
78078000
38070000
1C0E0000
0FFC0000
03F00000
00000000
00000000
00000000
00000000
00000000
00000000
00000000
00000000
00000000
00000000
ENDCHAR
STARTCHAR C0017
ENCODING -1 23
SWIDTH 650 0
DWIDTH 26 0
BBX 32 40 0 -10
BITMAP
00000000
00000000
00000000
00000000
00000000
00000000
00000000
00000000
00000000
00000000
00000000
00000000
00000000
01818000
0381C000
0700E000
0E007000
1C003800
38001C00
7FFFFE00
FFFFFF00
7FFFFE00
38001C00
1C003800
0E007000
0700E000
0381C000
01818000
00000000
00000000
00000000
00000000
00000000
00000000
00000000
00000000
00000000
00000000
00000000
00000000
ENDCHAR
STARTCHAR C0018
ENCODING -1 24
SWIDTH 650 0
DWIDTH 26 0
BBX 32 40 0 -10
BITMAP
00000000
00000000
00000000
00000000
00000000
00000000
00000000
00000000
00000000
00000000
00000000
00000000
06000000
0E000000
1C000000
38000000
70000000
FFFFFE00
FFFFFE00
70000000
38000000
1C000000
0E000000
06000000
00000000
00000000
00000000
00000000
00000000
00000000
00000000
00000000
00000000
00000000
00000000
00000000
00000000
00000000
00000000
00000000
ENDCHAR
STARTCHAR C0019
ENCODING -1 25
SWIDTH 575 0
DWIDTH 23 0
BBX 32 40 0 -10
BITMAP
00000000
00000000
00000000
00000000
00000000
00000000
00000000
00000000
00000000
00000000
00000000
00000000
00000000
000C0000
000E0000
00070000
00038000
0001C000
0000E000
FFFFF000
FFFFF800
FFFFF000
0000E000
0001C000
00038000
00070000
000E0000
000C0000
00000000
00000000
00000000
00000000
00000000
00000000
00000000
00000000
00000000
00000000
00000000
00000000
ENDCHAR
STARTCHAR C001A
ENCODING -1 26
SWIDTH 500 0
DWIDTH 20 0
BBX 32 40 0 -10
BITMAP
00000000
00000000
00000000
00070000
00070000
000F0000
000E0000
001E0000
001C0000
003C0000
00380000
FFFFC000
FFFFC000
FFFFC000
00E00000
01E00000
01C00000
FFFFC000
FFFFC000
FFFFC000
07000000
0F000000
0E000000
1E000000
1C000000
3C000000
38000000
38000000
00000000
00000000
00000000
00000000
00000000
00000000
00000000
00000000
00000000
00000000
00000000
00000000
ENDCHAR
STARTCHAR C001B
ENCODING -1 27
SWIDTH 575 0
DWIDTH 23 0
BBX 32 40 0 -10
BITMAP
00000000
00600000
00600000
00600000
00F00000
00F00000
01F80000
01F80000
03FC0000
079E0000
0F0F0000
1E078000
3E03C000
F801F000
F801F000
3C03C000
1E078000
0F0F0000
079E0000
03FC0000
01F80000
01F80000
00F00000
00F00000
00600000
00600000
00600000
00000000
00000000
00000000
00000000
00000000
00000000
00000000
00000000
00000000
00000000
00000000
00000000
00000000
ENDCHAR
STARTCHAR C001C
ENCODING -1 28
SWIDTH 500 0
DWIDTH 20 0
BBX 32 40 0 -10
BITMAP
00000000
00000000
00000000
00000000
00000000
00000000
00000000
0001C000
0007C000
001F8000
007E0000
01F80000
07E00000
1F800000
7E000000
F8000000
7E000000
1F800000
07E00000
01F80000
007E0000
001F8000
0007C000
0001C000
00000000
00000000
00000000
FFFFC000
FFFFC000
FFFFC000
00000000
00000000
00000000
00000000
00000000
00000000
00000000
00000000
00000000
00000000
ENDCHAR
STARTCHAR C001D
ENCODING -1 29
SWIDTH 500 0
DWIDTH 20 0
BBX 32 40 0 -10
BITMAP
00000000
00000000
00000000
00000000
00000000
00000000
00000000
E0000000
F8000000
7E000000
1F800000
07E00000
01F80000
007E0000
001F8000
0007C000
001F8000
007E0000
01F80000
07E00000
1F800000
7E000000
F8000000
E0000000
00000000
00000000
00000000
FFFFC000
FFFFC000
FFFFC000
00000000
00000000
00000000
00000000
00000000
00000000
00000000
00000000
00000000
00000000
ENDCHAR
STARTCHAR C001E
ENCODING -1 30
SWIDTH 375 0
DWIDTH 15 0
BBX 32 40 0 -10
BITMAP
00000000
00000000
00000000
00000000
00000000
00000000
00000000
00000000
00000000
00000000
00000000
00000000
00000000
00000000
FFF80000
FFF80000
FFF80000
00000000
00000000
FFF80000
FFF80000
FFF80000
00000000
00000000
FFF80000
FFF80000
FFF80000
00000000
00000000
00000000
00000000
00000000
00000000
00000000
00000000
00000000
00000000
00000000
00000000
00000000
ENDCHAR
STARTCHAR C001F
ENCODING -1 31
SWIDTH 525 0
DWIDTH 21 0
BBX 32 40 0 -10
BITMAP
00000000
00000000
00000000
00000000
00000000
00000000
00000000
00000000
00000000
00000000
00000000
E000E000
E000E000
7001C000
7001C000
38038000
38038000
1C070000
1C070000
0E0E0000
0E0E0000
071C0000
071C0000
03B80000
03B80000
01F00000
01F00000
00E00000
00E00000
00400000
00000000
00000000
00000000
00000000
00000000
00000000
00000000
00000000
00000000
00000000
ENDCHAR
STARTCHAR C0020
ENCODING -1 32
SWIDTH 400 0
DWIDTH 16 0
BBX 32 40 0 -10
BITMAP
00000000
00000000
00000000
00000000
00000000
00000000
00000000
00000000
00000000
00000000
00000000
00000000
00000000
00000000
00000000
00000000
00000000
00000000
00000000
00000000
00000000
00000000
00000000
00000000
00000000
00000000
00000000
00000000
00000000
00000000
00000000
00000000
00000000
00000000
00000000
00000000
00000000
00000000
00000000
00000000
ENDCHAR
STARTCHAR C0021
ENCODING -1 33
SWIDTH 200 0
DWIDTH 8 0
BBX 32 40 0 -10
BITMAP
30000000
78000000
FC000000
FC000000
FC000000
FC000000
FC000000
FC000000
78000000
78000000
78000000
78000000
78000000
78000000
78000000
78000000
30000000
30000000
30000000
30000000
30000000
00000000
00000000
00000000
30000000
78000000
FC000000
FC000000
78000000
30000000
00000000
00000000
00000000
00000000
00000000
00000000
00000000
00000000
00000000
00000000
ENDCHAR
STARTCHAR C0022
ENCODING -1 34
SWIDTH 300 0
DWIDTH 12 0
BBX 32 40 0 -10
BITMAP
71C00000
71C00000
71C00000
71C00000
71C00000
71C00000
71C00000
71C00000
71C00000
20800000
00000000
00000000
00000000
00000000
00000000
00000000
00000000
00000000
00000000
00000000
00000000
00000000
00000000
00000000
00000000
00000000
00000000
00000000
00000000
00000000
00000000
00000000
00000000
00000000
00000000
00000000
00000000
00000000
00000000
00000000
ENDCHAR
STARTCHAR C0023
ENCODING -1 35
SWIDTH 550 0
DWIDTH 22 0
BBX 32 40 0 -10
BITMAP
00000000
00000000
00000000
00000000
00000000
00000000
00000000
00000000
00000000
00000000
00000000
00E38000
00E38000
01E78000
01C70000
3FFFF000
7FFFF000
7FFFE000
038E0000
079E0000
071C0000
7FFFE000
FFFFE000
FFFFC000
0E380000
1E780000
1C700000
1C700000
00000000
00000000
00000000
00000000
00000000
00000000
00000000
00000000
00000000
00000000
00000000
00000000
ENDCHAR
STARTCHAR C0024
ENCODING -1 36
SWIDTH 475 0
DWIDTH 19 0
BBX 32 40 0 -10
BITMAP
03300000
03300000
03F00000
0FFC0000
1F3E0000
3B370000
33330000
73378000
63378000
63378000
63370000
73300000
73300000
3F300000
3FF00000
3FF00000
1FFC0000
0FFE0000
03FF0000
033F0000
033F0000
03338000
03338000
73318000
F3318000
F3318000
F3338000
63330000
73370000
3F3E0000
1FFC0000
03F00000
03300000
03300000
03300000
03300000
00000000
00000000
00000000
00000000
ENDCHAR
STARTCHAR C0025
ENCODING -1 37
SWIDTH 525 0
DWIDTH 21 0
BBX 32 40 0 -10
BITMAP
00000000
00000000
00FF8000
01FF8000
01838000
03838000
3B078000
7E070000
EE0F0000
C60E0000
C61E0000
EE1C0000
7C3C0000
38380000
00780000
00700000
00F00000
00E00000
01E00000
01C00000
03C00000
03800000
07838000
0707C000
0F0EE000
0E0C6000
1E0C6000
1C0EE000
3C07C000
38038000
00000000
00000000
00000000
00000000
00000000
00000000
00000000
00000000
00000000
00000000
ENDCHAR
STARTCHAR C0026
ENCODING -1 38
SWIDTH 600 0
DWIDTH 24 0
BBX 32 40 0 -10
BITMAP
00000000
01FC0000
03FE0000
070F0000
0E070000
0E070000
0E070000
0E070000
0F0F0000
070F0000
079E0000
03FC0000
01F8FC00
01F0FC00
03F03000
07F03000
1E783000
3C787000
783C6000
783C6000
F01EE000
F01EC000
F00FC000
F00F8000
F80F8000
781FC000
7C3FE000
3FFBF000
1FF1FC00
07E0FE00
00000000
00000000
00000000
00000000
00000000
00000000
00000000
00000000
00000000
00000000
ENDCHAR
STARTCHAR C0027
ENCODING -1 39
SWIDTH 200 0
DWIDTH 8 0
BBX 32 40 0 -10
BITMAP
00000000
30000000
78000000
FC000000
FC000000
7C000000
3C000000
0C000000
1C000000
18000000
18000000
10000000
00000000
00000000
00000000
00000000
00000000
00000000
00000000
00000000
00000000
00000000
00000000
00000000
00000000
00000000
00000000
00000000
00000000
00000000
00000000
00000000
00000000
00000000
00000000
00000000
00000000
00000000
00000000
00000000
ENDCHAR
STARTCHAR C0028
ENCODING -1 40
SWIDTH 250 0
DWIDTH 10 0
BBX 32 40 0 -10
BITMAP
03000000
07000000
0E000000
1C000000
1C000000
38000000
38000000
38000000
70000000
70000000
70000000
70000000
E0000000
E0000000
E0000000
E0000000
E0000000
E0000000
E0000000
E0000000
70000000
70000000
70000000
70000000
38000000
38000000
38000000
1C000000
1C000000
0E000000
07000000
03000000
00000000
00000000
00000000
00000000
00000000
00000000
00000000
00000000
ENDCHAR
STARTCHAR C0029
ENCODING -1 41
SWIDTH 250 0
DWIDTH 10 0
BBX 32 40 0 -10
BITMAP
C0000000
E0000000
70000000
38000000
38000000
1C000000
1C000000
1C000000
0E000000
0E000000
0E000000
0E000000
07000000
07000000
07000000
07000000
07000000
07000000
07000000
07000000
0E000000
0E000000
0E000000
0E000000
1C000000
1C000000
1C000000
38000000
38000000
70000000
E0000000
C0000000
00000000
00000000
00000000
00000000
00000000
00000000
00000000
00000000
ENDCHAR
STARTCHAR C002A
ENCODING -1 42
SWIDTH 400 0
DWIDTH 16 0
BBX 32 40 0 -10
BITMAP
00000000
00000000
00000000
00000000
00000000
00000000
00000000
00000000
00000000
00000000
00000000
03000000
03000000
07800000
07800000
F33C0000
F33C0000
FB7C0000
1FF00000
07800000
07800000
1FF00000
FB7C0000
F33C0000
F33C0000
07800000
07800000
03000000
03000000
00000000
00000000
00000000
00000000
00000000
00000000
00000000
00000000
00000000
00000000
00000000
ENDCHAR
STARTCHAR C002B
ENCODING -1 43
SWIDTH 375 0
DWIDTH 15 0
BBX 32 40 0 -10
BITMAP
00000000
00000000
00000000
00000000
00000000
00000000
00000000
00000000
00000000
00000000
00000000
00000000
00000000
07000000
07000000
07000000
07000000
07000000
FFF80000
FFF80000
FFF80000
07000000
07000000
07000000
07000000
07000000
00000000
00000000
00000000
00000000
00000000
00000000
00000000
00000000
00000000
00000000
00000000
00000000
00000000
00000000
ENDCHAR
STARTCHAR C002C
ENCODING -1 44
SWIDTH 200 0
DWIDTH 8 0
BBX 32 40 0 -10
BITMAP
00000000
00000000
00000000
00000000
00000000
00000000
00000000
00000000
00000000
00000000
00000000
00000000
00000000
00000000
00000000
00000000
00000000
00000000
00000000
00000000
00000000
00000000
00000000
00000000
00000000
00000000
00000000
38000000
7C000000
7C000000
7C000000
1C000000
1C000000
38000000
70000000
60000000
00000000
00000000
00000000
00000000
ENDCHAR
STARTCHAR C002D
ENCODING -1 45
SWIDTH 375 0
DWIDTH 15 0
BBX 32 40 0 -10
BITMAP
00000000
00000000
00000000
00000000
00000000
00000000
00000000
00000000
00000000
00000000
00000000
00000000
00000000
00000000
00000000
00000000
00000000
00000000
00000000
FFF80000
FFF80000
FFF80000
00000000
00000000
00000000
00000000
00000000
00000000
00000000
00000000
00000000
00000000
00000000
00000000
00000000
00000000
00000000
00000000
00000000
00000000
ENDCHAR
STARTCHAR C002E
ENCODING -1 46
SWIDTH 200 0
DWIDTH 8 0
BBX 32 40 0 -10
BITMAP
00000000
00000000
00000000
00000000
00000000
00000000
00000000
00000000
00000000
00000000
00000000
00000000
00000000
00000000
00000000
00000000
00000000
00000000
00000000
00000000
00000000
00000000
00000000
00000000
00000000
00000000
30000000
78000000
FC000000
FC000000
78000000
30000000
00000000
00000000
00000000
00000000
00000000
00000000
00000000
00000000
ENDCHAR
STARTCHAR C002F
ENCODING -1 47
SWIDTH 350 0
DWIDTH 14 0
BBX 32 40 0 -10
BITMAP
00700000
00700000
00700000
00F00000
00E00000
00E00000
01E00000
01C00000
01C00000
03C00000
03800000
03800000
07800000
07000000
07000000
0F000000
0E000000
0E000000
1E000000
1C000000
1C000000
3C000000
38000000
38000000
78000000
70000000
70000000
F0000000
E0000000
E0000000
E0000000
00000000
00000000
00000000
00000000
00000000
00000000
00000000
00000000
00000000
ENDCHAR
STARTCHAR C0030
ENCODING -1 48
SWIDTH 475 0
DWIDTH 19 0
BBX 32 40 0 -10
BITMAP
00000000
03E00000
07F00000
0E380000
1C1C0000
380E0000
380E0000
780F0000
780F0000
70070000
F0078000
F0078000
F0078000
F0078000
F0078000
F0078000
F0078000
F0078000
F0078000
F0078000
F0078000
F0078000
70070000
780F0000
380E0000
380E0000
180C0000
1C1C0000
0E380000
07F00000
03E00000
00000000
00000000
00000000
00000000
00000000
00000000
00000000
00000000
00000000
ENDCHAR
STARTCHAR C0031
ENCODING -1 49
SWIDTH 475 0
DWIDTH 19 0
BBX 32 40 0 -10
BITMAP
00000000
00F00000
03F00000
0FF00000
0FF00000
00F00000
00F00000
00F00000
00F00000
00F00000
00F00000
00F00000
00F00000
00F00000
00F00000
00F00000
00F00000
00F00000
00F00000
00F00000
00F00000
00F00000
00F00000
00F00000
00F00000
00F00000
00F00000
00F00000
0FFF0000
0FFF0000
00000000
00000000
00000000
00000000
00000000
00000000
00000000
00000000
00000000
00000000
ENDCHAR
STARTCHAR C0032
ENCODING -1 50
SWIDTH 475 0
DWIDTH 19 0
BBX 32 40 0 -10
BITMAP
00000000
07E00000
0FF00000
1FF80000
387C0000
303E0000
601E0000
601E0000
781E0000
7C1E0000
7C1E0000
3C1E0000
001E0000
001E0000
001C0000
003C0000
00780000
00700000
00E00000
01C00000
01C00000
03800000
07018000
0F018000
1E018000
3C030000
7FFF0000
FFFF0000
FFFF0000
FFFF0000
00000000
00000000
00000000
00000000
00000000
00000000
00000000
00000000
00000000
00000000
ENDCHAR
STARTCHAR C0033
ENCODING -1 51
SWIDTH 475 0
DWIDTH 19 0
BBX 32 40 0 -10
BITMAP
00000000
07F00000
0FF80000
1C7C0000
181C0000
3C1E0000
3C0E0000
1C0E0000
000E0000
000E0000
001E0000
003C0000
00780000
00F00000
1FC00000
1FF80000
00FC0000
003E0000
000F0000
000F0000
00078000
00078000
70078000
F8078000
F80F0000
700F0000
783E0000
3FFC0000
1FF80000
07E00000
00000000
00000000
00000000
00000000
00000000
00000000
00000000
00000000
00000000
00000000
ENDCHAR
STARTCHAR C0034
ENCODING -1 52
SWIDTH 475 0
DWIDTH 19 0
BBX 32 40 0 -10
BITMAP
00000000
00380000
00780000
00780000
00F80000
00F80000
01F80000
01F80000
03780000
03780000
06780000
06780000
0C780000
0C780000
18780000
18780000
30780000
30780000
60798000
60798000
FFFF8000
FFFF8000
00798000
00798000
00780000
00780000
00780000
00780000
03FF0000
03FF0000
00000000
00000000
00000000
00000000
00000000
00000000
00000000
00000000
00000000
00000000
ENDCHAR
STARTCHAR C0035
ENCODING -1 53
SWIDTH 475 0
DWIDTH 19 0
BBX 32 40 0 -10
BITMAP
00020000
0FFE0000
0FFE0000
1FFE0000
1FFC0000
18000000
18000000
18000000
18000000
18000000
18000000
18000000
18000000
1FF00000
1FF80000
183E0000
001F0000
000F0000
000F0000
00078000
00078000
00078000
38078000
78078000
780F0000
700F0000
300E0000
381C0000
1FF80000
07E00000
00000000
00000000
00000000
00000000
00000000
00000000
00000000
00000000
00000000
00000000
ENDCHAR
STARTCHAR C0036
ENCODING -1 54
SWIDTH 475 0
DWIDTH 19 0
BBX 32 40 0 -10
BITMAP
00000000
001F0000
007F0000
01F00000
03C00000
07800000
0F000000
0E000000
1E000000
1C000000
3C000000
3C000000
39F00000
7FFC0000
7E1E0000
7C0E0000
7C0F0000
7C0F8000
78078000
78078000
78078000
78078000
78078000
7C0F8000
3C0F0000
3C0F0000
1C0E0000
0E1C0000
07F80000
03F00000
00000000
00000000
00000000
00000000
00000000
00000000
00000000
00000000
00000000
00000000
ENDCHAR
STARTCHAR C0037
ENCODING -1 55
SWIDTH 475 0
DWIDTH 19 0
BBX 32 40 0 -10
BITMAP
00000000
1FFF8000
1FFF0000
3FFF0000
38030000
38030000
70070000
70060000
00060000
000E0000
000C0000
000C0000
000C0000
00180000
00180000
00180000
00380000
00300000
00300000
00700000
00700000
00E00000
00E00000
00E00000
01E00000
01E00000
01E00000
01E00000
01E00000
01E00000
00000000
00000000
00000000
00000000
00000000
00000000
00000000
00000000
00000000
00000000
ENDCHAR
STARTCHAR C0038
ENCODING -1 56
SWIDTH 475 0
DWIDTH 19 0
BBX 32 40 0 -10
BITMAP
00000000
03F00000
0FFC0000
1E1E0000
3C0F0000
3C0F0000
78078000
78078000
78078000
78078000
7C0F8000
3C0F0000
1C0E0000
0F3C0000
03F00000
0FFC0000
1E1E0000
38070000
78078000
F003C000
F003C000
F003C000
F003C000
F003C000
F003C000
78078000
38070000
1E1E0000
0FFC0000
03F00000
00000000
00000000
00000000
00000000
00000000
00000000
00000000
00000000
00000000
00000000
ENDCHAR
STARTCHAR C0039
ENCODING -1 57
SWIDTH 475 0
DWIDTH 19 0
BBX 32 40 0 -10
BITMAP
00000000
03F00000
07F80000
0E1C0000
1C0E0000
3C0F0000
3C0F0000
7C0F8000
78078000
78078000
78078000
78078000
78078000
7C0F8000
3C0F8000
1C0F8000
1E1F8000
0FFF8000
03E70000
000F0000
000F0000
000E0000
001E0000
001C0000
003C0000
00780000
00F00000
03E00000
3F800000
3E000000
00000000
00000000
00000000
00000000
00000000
00000000
00000000
00000000
00000000
00000000
ENDCHAR
STARTCHAR C003A
ENCODING -1 58
SWIDTH 200 0
DWIDTH 8 0
BBX 32 40 0 -10
BITMAP
00000000
00000000
00000000
00000000
00000000
00000000
00000000
00000000
00000000
00000000
00000000
00000000
30000000
78000000
FC000000
FC000000
78000000
30000000
00000000
00000000
00000000
00000000
00000000
00000000
30000000
78000000
FC000000
FC000000
78000000
30000000
00000000
00000000
00000000
00000000
00000000
00000000
00000000
00000000
00000000
00000000
ENDCHAR
STARTCHAR C003B
ENCODING -1 59
SWIDTH 200 0
DWIDTH 8 0
BBX 32 40 0 -10
BITMAP
00000000
00000000
00000000
00000000
00000000
00000000
00000000
00000000
00000000
00000000
00000000
00000000
30000000
78000000
FC000000
FC000000
78000000
30000000
00000000
00000000
00000000
00000000
00000000
00000000
30000000
78000000
FC000000
FC000000
7C000000
3C000000
1C000000
18000000
38000000
30000000
70000000
00000000
00000000
00000000
00000000
00000000
ENDCHAR
STARTCHAR C003C
ENCODING -1 60
SWIDTH 525 0
DWIDTH 21 0
BBX 32 40 0 -10
BITMAP
00000000
00000000
00000000
00000000
00000000
00000000
00000000
00000000
00000000
00006000
0001E000
0007E000
001F8000
007E0000
01F80000
07E00000
1F800000
7E000000
F8000000
7E000000
1F800000
07E00000
01F80000
007E0000
001F8000
0007E000
0001E000
00006000
00000000
00000000
00000000
00000000
00000000
00000000
00000000
00000000
00000000
00000000
00000000
00000000
ENDCHAR
STARTCHAR C003D
ENCODING -1 61
SWIDTH 375 0
DWIDTH 15 0
BBX 32 40 0 -10
BITMAP
00000000
00000000
00000000
00000000
00000000
00000000
00000000
00000000
00000000
00000000
00000000
00000000
00000000
00000000
00000000
00000000
FFF80000
FFF80000
FFF80000
00000000
00000000
FFF80000
FFF80000
FFF80000
00000000
00000000
00000000
00000000
00000000
00000000
00000000
00000000
00000000
00000000
00000000
00000000
00000000
00000000
00000000
00000000
ENDCHAR
STARTCHAR C003E
ENCODING -1 62
SWIDTH 525 0
DWIDTH 21 0
BBX 32 40 0 -10
BITMAP
00000000
00000000
00000000
00000000
00000000
00000000
00000000
00000000
00000000
00000000
C0000000
F0000000
FC000000
3F000000
0FC00000
03F00000
00FC0000
003F0000
000FC000
0003E000
000FC000
003F0000
00FC0000
03F00000
0FC00000
3F000000
FC000000
F0000000
C0000000
00000000
00000000
00000000
00000000
00000000
00000000
00000000
00000000
00000000
00000000
00000000
ENDCHAR
STARTCHAR C003F
ENCODING -1 63
SWIDTH 375 0
DWIDTH 15 0
BBX 32 40 0 -10
BITMAP
00000000
0F800000
1FC00000
3FE00000
70F00000
60700000
F0380000
F0380000
F0380000
60380000
00780000
00780000
00F00000
01F00000
03E00000
07C00000
07800000
07000000
0E000000
0E000000
0C000000
0C000000
00000000
00000000
00000000
0C000000
1E000000
3F000000
3F000000
1E000000
0C000000
00000000
00000000
00000000
00000000
00000000
00000000
00000000
00000000
00000000
ENDCHAR
STARTCHAR C0040
ENCODING -1 64
SWIDTH 550 0
DWIDTH 22 0
BBX 32 40 0 -10
BITMAP
00000000
00000000
00000000
00000000
00000000
00000000
00000000
00000000
00000000
00000000
07FE0000
1FFF8000
1FFF8000
3801E000
7000E000
61F87000
E7FE7000
C70E3000
CF0F3000
CE073000
CE073000
CE073000
CF0F7000
C70F6000
C7FFE000
C1FFC000
E0000000
70000000
3FFFF000
1FFFF000
00000000
00000000
00000000
00000000
00000000
00000000
00000000
00000000
00000000
00000000
ENDCHAR
STARTCHAR C0041
ENCODING -1 65
SWIDTH 700 0
DWIDTH 28 0
BBX 32 40 0 -10
BITMAP
00000000
00040000
000C0000
000E0000
000E0000
001E0000
001F0000
001F0000
00370000
00278000
00678000
00678000
0043C000
00C3C000
00C3C000
0081E000
0181E000
0181E000
0101F000
03FFF000
03FFF000
02007800
06007800
06007800
04003C00
0C003C00
0C003C00
18001E00
FFC1FFC0
FFC1FFC0
00000000
00000000
00000000
00000000
00000000
00000000
00000000
00000000
00000000
00000000
ENDCHAR
STARTCHAR C0042
ENCODING -1 66
SWIDTH 600 0
DWIDTH 24 0
BBX 32 40 0 -10
BITMAP
00000000
FFFF8000
FFFFC000
1E01E000
1E00F000
1E00F000
1E00F800
1E00F800
1E00F800
1E00F800
1E00F000
1E00F000
1E01E000
1E03C000
1FFF8000
1FFFE000
1E03F000
1E01F800
1E00FC00
1E007C00
1E007C00
1E007C00
1E007C00
1E007C00
1E007C00
1E007C00
1E00F800
1E01F800
FFFFF000
FFFFC000
00000000
00000000
00000000
00000000
00000000
00000000
00000000
00000000
00000000
00000000
ENDCHAR
STARTCHAR C0043
ENCODING -1 67
SWIDTH 625 0
DWIDTH 25 0
BBX 32 40 0 -10
BITMAP
001C0000
00FF8C00
03C3EC00
0F007C00
1F001C00
1E001C00
3E000C00
3C000C00
7C000C00
7C000000
F8000000
F8000000
F8000000
F8000000
F8000000
F8000000
F8000000
F8000000
F8000000
F8000000
F8000000
7C000600
7C000600
3C000600
3E000600
1E001E00
1F001E00
0FC0F600
03FFE600
00FF8600
00000000
00000000
00000000
00000000
00000000
00000000
00000000
00000000
00000000
00000000
ENDCHAR
STARTCHAR C0044
ENCODING -1 68
SWIDTH 725 0
DWIDTH 29 0
BBX 32 40 0 -10
BITMAP
00000000
FFFFF000
FFFFF800
0F807C00
0F803E00
0F800F00
0F800700
0F800780
0F800780
0F8007C0
0F8007C0
0F8003E0
0F8003E0
0F8003E0
0F8003E0
0F8003E0
0F8003E0
0F8003E0
0F8003E0
0F8003E0
0F8007E0
0F8007C0
0F8007C0
0F800780
0F800780
0F800F00
0F803F00
0F807E00
FFFFFC00
FFFFF000
00000000
00000000
00000000
00000000
00000000
00000000
00000000
00000000
00000000
00000000
ENDCHAR
STARTCHAR C0045
ENCODING -1 69
SWIDTH 650 0
DWIDTH 26 0
BBX 32 40 0 -10
BITMAP
00000000
FFFFFE00
FFFFFE00
0F800E00
0F800600
0F800200
0F800200
0F800000
0F800000
0F808000
0F808000
0F818000
0F838000
0F878000
0FFF8000
0FFF8000
0F878000
0F838000
0F818000
0F808000
0F808000
0F800000
0F800080
0F800080
0F800180
0F800180
0F800380
0F800380
FFFFFF80
FFFFFF80
00000000
00000000
00000000
00000000
00000000
00000000
00000000
00000000
00000000
00000000
ENDCHAR
STARTCHAR C0046
ENCODING -1 70
SWIDTH 625 0
DWIDTH 25 0
BBX 32 40 0 -10
BITMAP
00000000
FFFFFE00
FFFFFE00
0F800E00
0F800600
0F800600
0F800200
0F800200
0F800200
0F808000
0F808000
0F818000
0F838000
0F878000
0FFF8000
0FFF8000
0F878000
0F838000
0F818000
0F808000
0F808000
0F800000
0F800000
0F800000
0F800000
0F800000
0F800000
0F800000
FFFC0000
FFFC0000
00000000
00000000
00000000
00000000
00000000
00000000
00000000
00000000
00000000
00000000
ENDCHAR
STARTCHAR C0047
ENCODING -1 71
SWIDTH 725 0
DWIDTH 29 0
BBX 32 40 0 -10
BITMAP
003E0000
00FF8800
03C1EC00
07007C00
0E003C00
1E001C00
1E001C00
3E000C00
3C000C00
7C000400
7C000000
7C000000
FC000000
FC000000
FC000000
FC000000
FC000000
FC07FFE0
FC07FFE0
7C007E00
7C007E00
7C007E00
3E007E00
3E007E00
1E007C00
0E007C00
0700F800
0381F000
01FFE000
007F0000
00000000
00000000
00000000
00000000
00000000
00000000
00000000
00000000
00000000
00000000
ENDCHAR
STARTCHAR C0048
ENCODING -1 72
SWIDTH 775 0
DWIDTH 31 0
BBX 32 40 0 -10
BITMAP
00000000
FFF8FFF8
FFF8FFF8
0F800F80
0F800F80
0F800F80
0F800F80
0F800F80
0F800F80
0F800F80
0F800F80
0F800F80
0F800F80
0F800F80
0FFFFF80
0FFFFF80
0F800F80
0F800F80
0F800F80
0F800F80
0F800F80
0F800F80
0F800F80
0F800F80
0F800F80
0F800F80
0F800F80
0F800F80
FFF8FFF8
FFF8FFF8
00000000
00000000
00000000
00000000
00000000
00000000
00000000
00000000
00000000
00000000
ENDCHAR
STARTCHAR C0049
ENCODING -1 73
SWIDTH 375 0
DWIDTH 15 0
BBX 32 40 0 -10
BITMAP
00000000
FFF80000
FFF80000
0F800000
0F800000
0F800000
0F800000
0F800000
0F800000
0F800000
0F800000
0F800000
0F800000
0F800000
0F800000
0F800000
0F800000
0F800000
0F800000
0F800000
0F800000
0F800000
0F800000
0F800000
0F800000
0F800000
0F800000
0F800000
FFF80000
FFF80000
00000000
00000000
00000000
00000000
00000000
00000000
00000000
00000000
00000000
00000000
ENDCHAR
STARTCHAR C004A
ENCODING -1 74
SWIDTH 450 0
DWIDTH 18 0
BBX 32 40 0 -10
BITMAP
00000000
1FFF0000
1FFF0000
01F00000
01F00000
01F00000
01F00000
01F00000
01F00000
01F00000
01F00000
01F00000
01F00000
01F00000
01F00000
01F00000
01F00000
01F00000
01F00000
01F00000
01F00000
01F00000
01F00000
01F00000
01F00000
01F00000
01F00000
71F00000
F9E00000
F9E00000
F1C00000
73C00000
7F800000
1E000000
00000000
00000000
00000000
00000000
00000000
00000000
ENDCHAR
STARTCHAR C004B
ENCODING -1 75
SWIDTH 800 0
DWIDTH 32 0
BBX 32 40 0 -10
BITMAP
00000000
FFFCFFE0
FFFCFFE0
0F801C00
0F803800
0F807000
0F80E000
0F81C000
0F838000
0F870000
0F8E0000
0F9C0000
0FBC0000
0FFE0000
0FFE0000
0FBF0000
0F9F8000
0F9F8000
0F8FC000
0F87E000
0F83F000
0F83F000
0F81F800
0F80FC00
0F807E00
0F803F00
0F803F00
0F801F80
FFFCFFFC
FFFCFFFC
00000000
00000000
00000000
00000000
00000000
00000000
00000000
00000000
00000000
00000000
ENDCHAR
STARTCHAR C004C
ENCODING -1 76
SWIDTH 600 0
DWIDTH 24 0
BBX 32 40 0 -10
BITMAP
00000000
FFF80000
FFF80000
0F800000
0F800000
0F800000
0F800000
0F800000
0F800000
0F800000
0F800000
0F800000
0F800000
0F800000
0F800000
0F800000
0F800000
0F800000
0F800000
0F800000
0F800000
0F800400
0F800400
0F800C00
0F800C00
0F800C00
0F801C00
0F801C00
FFFFFC00
FFFFFC00
00000000
00000000
00000000
00000000
00000000
00000000
00000000
00000000
00000000
00000000
ENDCHAR
STARTCHAR C004D
ENCODING -1 77
SWIDTH 875 0
DWIDTH 35 0
BBX 64 40 0 -10
BITMAP
0000000000000000
FFC0007F80000000
FFC001FF80000000
0FE001FC00000000
0FE001FC00000000
0FF003FC00000000
0DF0037C00000000
0DF0037C00000000
0CF8037C00000000
0CF8067C00000000
0CF8067C00000000
0C7C067C00000000
0C7C0C7C00000000
0C7C0C7C00000000
0C3E0C7C00000000
0C3E187C00000000
0C3E187C00000000
0C1F187C00000000
0C1F307C00000000
0C1F307C00000000
0C0FB07C00000000
0C0FF07C00000000
0C0FE07C00000000
0C07E07C00000000
0C07E07C00000000
0C07E07C00000000
0C03C07C00000000
0C03C07C00000000
FFC3C3FF80000000
FFC183FF80000000
0000000000000000
0000000000000000
0000000000000000
0000000000000000
0000000000000000
0000000000000000
0000000000000000
0000000000000000
0000000000000000
0000000000000000
ENDCHAR
STARTCHAR C004E
ENCODING -1 78
SWIDTH 750 0
DWIDTH 30 0
BBX 32 40 0 -10
BITMAP
00000000
FFC00FF0
FFE00FF0
0FE00180
0FF00180
0DF80180
0CF80180
0CFC0180
0C7E0180
0C3E0180
0C3F0180
0C1F0180
0C0F8180
0C0FC180
0C07C180
0C07E180
0C03E180
0C03F180
0C01F180
0C00F980
0C00FD80
0C007D80
0C003F80
0C003F80
0C001F80
0C000F80
0C000F80
0C000780
FFC00380
FFC00380
00000000
00000000
00000000
00000000
00000000
00000000
00000000
00000000
00000000
00000000
ENDCHAR
STARTCHAR C004F
ENCODING -1 79
SWIDTH 700 0
DWIDTH 28 0
BBX 32 40 0 -10
BITMAP
003E0000
00FFC000
01E3E000
07807800
0E001C00
1E001E00
1E001E00
3C000F00
3C000F00
7C000F80
7C000F80
7C000F80
FC000FC0
FC000FC0
FC000FC0
FC000FC0
FC000FC0
FC000FC0
FC000FC0
7C000F80
7C000F80
7C000F80
3C000F00
3C000F00
3E001F00
1E001E00
0E001C00
07003800
03E3F000
00FFC000
003E0000
00000000
00000000
00000000
00000000
00000000
00000000
00000000
00000000
00000000
ENDCHAR
STARTCHAR C0050
ENCODING -1 80
SWIDTH 600 0
DWIDTH 24 0
BBX 32 40 0 -10
BITMAP
00000000
FFFF8000
FFFFE000
0F81F000
0F80F800
0F807800
0F807C00
0F807C00
0F807C00
0F807C00
0F807C00
0F807C00
0F807800
0F807800
0F80F000
0F83E000
0FFFC000
0FFE0000
0F800000
0F800000
0F800000
0F800000
0F800000
0F800000
0F800000
0F800000
0F800000
0F800000
FFF80000
FFF80000
00000000
00000000
00000000
00000000
00000000
00000000
00000000
00000000
00000000
00000000
ENDCHAR
STARTCHAR C0051
ENCODING -1 81
SWIDTH 700 0
DWIDTH 28 0
BBX 32 40 0 -10
BITMAP
003E0000
00FFC000
01E3E000
07807800
0E001C00
1E001E00
1E001E00
3C000F00
3C000F00
7C000F80
7C000F80
7C000F80
FC000FC0
FC000FC0
FC000FC0
FC000FC0
FC000FC0
FC000FC0
FC000FC0
7C000F80
7C000F80
7C000F80
3C000F00
3C000F00
3E001F00
1E001E00
0E001C00
07003800
03E3F000
00FFC000
007F0000
007F0000
007F0000
003F0000
003F8000
003F8000
001F8000
001FC000
000FC000
0007C000
ENDCHAR
STARTCHAR C0052
ENCODING -1 82
SWIDTH 675 0
DWIDTH 27 0
BBX 32 40 0 -10
BITMAP
00000000
FFFFC000
FFFFF000
0F80F800
0F807800
0F807C00
0F807C00
0F807C00
0F807C00
0F807C00
0F807800
0F80F800
0F81F000
0F8FC000
0FFE0000
0FFF0000
0F8FC000
0F83E000
0F81F000
0F80F000
0F80F000
0F80F800
0F80F800
0F80F800
0F807800
0F807800
0F807800
0F803C00
FFF83C80
FFF81F80
00000700
00000000
00000000
00000000
00000000
00000000
00000000
00000000
00000000
00000000
ENDCHAR
STARTCHAR C0053
ENCODING -1 83
SWIDTH 525 0
DWIDTH 21 0
BBX 32 40 0 -10
BITMAP
03F80000
0FFCC000
1E0EC000
3807C000
7003C000
6001C000
6000C000
7000C000
7000C000
78000000
78000000
7E000000
3FE00000
3FF80000
1FFE0000
0FFF0000
03FF8000
00FF8000
001FC000
0007C000
0003C000
0003E000
C001E000
C001E000
C001E000
E001C000
F003C000
F8038000
DE0F0000
CFFE0000
03F80000
00000000
00000000
00000000
00000000
00000000
00000000
00000000
00000000
00000000
ENDCHAR
STARTCHAR C0054
ENCODING -1 84
SWIDTH 775 0
DWIDTH 31 0
BBX 32 40 0 -10
BITMAP
00000000
7FFFFFF0
7FFFFFF0
780F80F0
700F8070
600F8030
600F8030
400F8010
C00F8018
C00F8018
000F8000
000F8000
000F8000
000F8000
000F8000
000F8000
000F8000
000F8000
000F8000
000F8000
000F8000
000F8000
000F8000
000F8000
000F8000
000F8000
000F8000
000F8000
01FFFC00
01FFFC00
00000000
00000000
00000000
00000000
00000000
00000000
00000000
00000000
00000000
00000000
ENDCHAR
STARTCHAR C0055
ENCODING -1 85
SWIDTH 725 0
DWIDTH 29 0
BBX 32 40 0 -10
BITMAP
00000000
FFF83FE0
FFF83FE0
0F800600
0F800600
0F800600
0F800600
0F800600
0F800600
0F800600
0F800600
0F800600
0F800600
0F800600
0F800600
0F800600
0F800600
0F800600
0F800600
0F800600
0F800600
0F800600
0F800600
0F800600
0F800600
07C00E00
07C01C00
03E03800
01FFF000
003FC000
00000000
00000000
00000000
00000000
00000000
00000000
00000000
00000000
00000000
00000000
ENDCHAR
STARTCHAR C0056
ENCODING -1 86
SWIDTH 750 0
DWIDTH 30 0
BBX 32 40 0 -10
BITMAP
00000000
FFFC3FF0
FFFC3FF0
0FC00300
07C00300
07C00600
07C00600
03E00600
03E00C00
03E00C00
03F00C00
01F00C00
01F01800
01F81800
00F81800
00F83000
00FC3000
007C3000
007C3000
007C6000
003E6000
003E6000
003EC000
001EC000
001FC000
000F8000
000F8000
000F8000
00070000
00070000
00000000
00000000
00000000
00000000
00000000
00000000
00000000
00000000
00000000
00000000
ENDCHAR
STARTCHAR C0057
ENCODING -1 87
SWIDTH 950 0
DWIDTH 38 0
BBX 64 40 0 -10
BITMAP
0000000000000000
FFFFFFCFF0000000
FFFFFFCFF0000000
1F07C60180000000
1F07C60180000000
0F83EE0380000000
0F83EE0380000000
0F83EC0300000000
07C1FC0700000000
07C1FC0700000000
07C1F80600000000
03E0F80E00000000
03E0F80E00000000
03E0F80C00000000
01E0781C00000000
01F07C1C00000000
01F0FC1800000000
00F0FC3800000000
00F8FE3800000000
00F9FE3000000000
00F9FE7000000000
007D9F7000000000
007F9F6000000000
007F9FE000000000
003F0FC000000000
003F0FC000000000
003F0FC000000000
001E078000000000
001E078000000000
001E078000000000
0000000000000000
0000000000000000
0000000000000000
0000000000000000
0000000000000000
0000000000000000
0000000000000000
0000000000000000
0000000000000000
0000000000000000
ENDCHAR
STARTCHAR C0058
ENCODING -1 88
SWIDTH 750 0
DWIDTH 30 0
BBX 32 40 0 -10
BITMAP
00000000
FFF83FF0
FFF83FF0
0FC00700
07E00600
03E00E00
03F00C00
01F01C00
01F83800
00F83000
00FC7000
007CE000
007EC000
003FC000
001F8000
001F8000
000F8000
001FC000
001FC000
003FE000
0073F000
0061F000
00E1F800
00C0F800
01C0FC00
03807E00
07003E00
06003F00
FFC1FFF0
FFC1FFF0
00000000
00000000
00000000
00000000
00000000
00000000
00000000
00000000
00000000
00000000
ENDCHAR
STARTCHAR C0059
ENCODING -1 89
SWIDTH 750 0
DWIDTH 30 0
BBX 32 40 0 -10
BITMAP
00000000
FFF83FF0
FFF83FF0
0F800700
07C00600
07C00E00
03E00C00
03E01800
01F01800
01F03000
00F83000
00F86000
007C6000
007CC000
003FC000
003F8000
001F0000
001F0000
001F0000
001F0000
001F0000
001F0000
001F0000
001F0000
001F0000
001F0000
001F0000
001F0000
01FFF000
01FFF000
00000000
00000000
00000000
00000000
00000000
00000000
00000000
00000000
00000000
00000000
ENDCHAR
STARTCHAR C005A
ENCODING -1 90
SWIDTH 600 0
DWIDTH 24 0
BBX 32 40 0 -10
BITMAP
00000000
7FFFFC00
7FFFF800
7801F800
7001F000
7003F000
6003E000
6007E000
600FC000
000F8000
001F8000
001F0000
003F0000
007E0000
007C0000
00FC0000
01F80000
03F00000
03E00000
07E00000
07C00000
0FC01800
0F801800
1F801800
3F003800
3E003800
7E003800
7C007800
FFFFF800
FFFFF800
00000000
00000000
00000000
00000000
00000000
00000000
00000000
00000000
00000000
00000000
ENDCHAR
STARTCHAR C005B
ENCODING -1 91
SWIDTH 250 0
DWIDTH 10 0
BBX 32 40 0 -10
BITMAP
7F000000
7F000000
70000000
70000000
70000000
70000000
70000000
70000000
70000000
70000000
70000000
70000000
70000000
70000000
70000000
70000000
70000000
70000000
70000000
70000000
70000000
70000000
70000000
70000000
70000000
70000000
70000000
70000000
70000000
70000000
7F000000
7F000000
00000000
00000000
00000000
00000000
00000000
00000000
00000000
00000000
ENDCHAR
STARTCHAR C005C
ENCODING -1 92
SWIDTH 375 0
DWIDTH 15 0
BBX 32 40 0 -10
BITMAP
E0000000
E0000000
E0000000
F0000000
70000000
70000000
78000000
38000000
38000000
3C000000
1C000000
1C000000
1E000000
0E000000
0E000000
0F000000
07000000
07000000
07800000
03800000
03800000
03C00000
01C00000
01C00000
01E00000
00E00000
00E00000
00F00000
00700000
00700000
00700000
00000000
00000000
00000000
00000000
00000000
00000000
00000000
00000000
00000000
ENDCHAR
STARTCHAR C005D
ENCODING -1 93
SWIDTH 275 0
DWIDTH 11 0
BBX 32 40 0 -10
BITMAP
3F800000
3F800000
03800000
03800000
03800000
03800000
03800000
03800000
03800000
03800000
03800000
03800000
03800000
03800000
03800000
03800000
03800000
03800000
03800000
03800000
03800000
03800000
03800000
03800000
03800000
03800000
03800000
03800000
03800000
03800000
3F800000
3F800000
00000000
00000000
00000000
00000000
00000000
00000000
00000000
00000000
ENDCHAR
STARTCHAR C005E
ENCODING -1 94
SWIDTH 0 0
DWIDTH 0 0
BBX 0 40 0 -10
BITMAP
00
00
00
00
00
00
00
00
00
00
00
00
00
00
00
00
00
00
00
00
00
00
00
00
00
00
00
00
00
00
00
00
00
00
00
00
00
00
00
00
ENDCHAR
STARTCHAR C005F
ENCODING -1 95
SWIDTH 475 0
DWIDTH 19 0
BBX 32 40 0 -10
BITMAP
00000000
00000000
00000000
00000000
00000000
00000000
00000000
00000000
00000000
00000000
00000000
00000000
00000000
00000000
00000000
00000000
00000000
00000000
00000000
00000000
00000000
00000000
00000000
00000000
00000000
00000000
00000000
00000000
00000000
00000000
00000000
00000000
FFFFE000
FFFFE000
FFFFE000
00000000
00000000
00000000
00000000
00000000
ENDCHAR
STARTCHAR C0060
ENCODING -1 96
SWIDTH 225 0
DWIDTH 9 0
BBX 32 40 0 -10
BITMAP
00000000
1C000000
7E000000
7E000000
FE000000
9E000000
8C000000
C0000000
40000000
60000000
30000000
18000000
08000000
00000000
00000000
00000000
00000000
00000000
00000000
00000000
00000000
00000000
00000000
00000000
00000000
00000000
00000000
00000000
00000000
00000000
00000000
00000000
00000000
00000000
00000000
00000000
00000000
00000000
00000000
00000000
ENDCHAR
STARTCHAR C0061
ENCODING -1 97
SWIDTH 450 0
DWIDTH 18 0
BBX 32 40 0 -10
BITMAP
00000000
00000000
00000000
00000000
00000000
00000000
00000000
00000000
00000000
00000000
00000000
00000000
0FF00000
1FF80000
307C0000
383C0000
783C0000
383C0000
003C0000
003C0000
0FFC0000
3FFC0000
7C3C0000
F83C0000
F03C0000
F03C0000
F07C0000
F8FD0000
7FBF0000
3F1F0000
00000000
00000000
00000000
00000000
00000000
00000000
00000000
00000000
00000000
00000000
ENDCHAR
STARTCHAR C0062
ENCODING -1 98
SWIDTH 500 0
DWIDTH 20 0
BBX 32 40 0 -10
BITMAP
00000000
FE000000
FE000000
1E000000
1E000000
1E000000
1E000000
1E000000
1E000000
1E000000
1E000000
1E000000
1E380000
1EFE0000
1FFF0000
1F878000
1F038000
1E038000
1E03C000
1E03C000
1E03C000
1E03C000
1E03C000
1E03C000
1E03C000
1E03C000
1F038000
1F878000
FFFF0000
FEFE0000
00380000
00000000
00000000
00000000
00000000
00000000
00000000
00000000
00000000
00000000
ENDCHAR
STARTCHAR C0063
ENCODING -1 99
SWIDTH 425 0
DWIDTH 17 0
BBX 32 40 0 -10
BITMAP
00000000
00000000
00000000
00000000
00000000
00000000
00000000
00000000
00000000
00000000
00000000
00000000
03C00000
0FF00000
1E780000
381C0000
381C0000
700C0000
700C0000
70000000
70000000
70000000
70000000
70000000
70060000
380C0000
381C0000
1E380000
0FF00000
03E00000
00000000
00000000
00000000
00000000
00000000
00000000
00000000
00000000
00000000
00000000
ENDCHAR
STARTCHAR C0064
ENCODING -1 100
SWIDTH 500 0
DWIDTH 20 0
BBX 32 40 0 -10
BITMAP
00000000
00FE0000
00FE0000
001E0000
001E0000
001E0000
001E0000
001E0000
001E0000
001E0000
001E0000
001E0000
079E0000
1FDE0000
387E0000
703E0000
701E0000
701E0000
F01E0000
F01E0000
F01E0000
F01E0000
F01E0000
F01E0000
F01E0000
F01E0000
703E0000
703E0000
38FFC000
1FDFC000
07800000
00000000
00000000
00000000
00000000
00000000
00000000
00000000
00000000
00000000
ENDCHAR
STARTCHAR C0065
ENCODING -1 101
SWIDTH 450 0
DWIDTH 18 0
BBX 32 40 0 -10
BITMAP
00000000
00000000
00000000
00000000
00000000
00000000
00000000
00000000
00000000
00000000
00000000
00000000
03E00000
0FF80000
1C3C0000
381C0000
381E0000
780E0000
780E0000
FFFE0000
FFFE0000
F0000000
F0000000
F0000000
78010000
78030000
3C060000
1E0C0000
0FF80000
07F00000
00000000
00000000
00000000
00000000
00000000
00000000
00000000
00000000
00000000
00000000
ENDCHAR
STARTCHAR C0066
ENCODING -1 102
SWIDTH 400 0
DWIDTH 16 0
BBX 32 40 0 -10
BITMAP
00000000
01F80000
03FC0000
078C0000
073C0000
0F3C0000
0F1C0000
0F000000
0F000000
0F000000
0F000000
0F000000
0F000000
FFF00000
FFF00000
0F000000
0F000000
0F000000
0F000000
0F000000
0F000000
0F000000
0F000000
0F000000
0F000000
0F000000
0F000000
0F000000
FFF00000
FFF00000
00000000
00000000
00000000
00000000
00000000
00000000
00000000
00000000
00000000
00000000
ENDCHAR
STARTCHAR C0067
ENCODING -1 103
SWIDTH 500 0
DWIDTH 20 0
BBX 32 40 0 -10
BITMAP
00000000
00000000
00000000
00000000
00000000
00000000
00000000
00000000
00000000
00000000
00000000
00000000
07E3C000
0FF7C000
1C3DC000
381C0000
381C0000
781E0000
781E0000
781E0000
381C0000
381C0000
1C380000
0FF00000
3FC00000
78000000
60000000
78000000
3FF80000
1FFC0000
7FFE0000
600E0000
C0060000
C0060000
C0060000
E00C0000
70380000
3FF00000
0FC00000
00000000
ENDCHAR
STARTCHAR C0068
ENCODING -1 104
SWIDTH 575 0
DWIDTH 23 0
BBX 32 40 0 -10
BITMAP
00000000
FE000000
FE000000
1E000000
1E000000
1E000000
1E000000
1E000000
1E000000
1E000000
1E000000
1E000000
1E3E0000
1E7F8000
1EFFC000
1FC7C000
1F83C000
1F03C000
1F03C000
1E03C000
1E03C000
1E03C000
1E03C000
1E03C000
1E03C000
1E03C000
1E03C000
1E03C000
FFDFF800
FFDFF800
00000000
00000000
00000000
00000000
00000000
00000000
00000000
00000000
00000000
00000000
ENDCHAR
STARTCHAR C0069
ENCODING -1 105
SWIDTH 300 0
DWIDTH 12 0
BBX 32 40 0 -10
BITMAP
00000000
0C000000
1E000000
1E000000
0C000000
00000000
00000000
00000000
00000000
00000000
00000000
00000000
FE000000
FE000000
1E000000
1E000000
1E000000
1E000000
1E000000
1E000000
1E000000
1E000000
1E000000
1E000000
1E000000
1E000000
1E000000
1E000000
FFC00000
FFC00000
00000000
00000000
00000000
00000000
00000000
00000000
00000000
00000000
00000000
00000000
ENDCHAR
STARTCHAR C006A
ENCODING -1 106
SWIDTH 275 0
DWIDTH 11 0
BBX 32 40 0 -10
BITMAP
00000000
03000000
07800000
07800000
03000000
00000000
00000000
00000000
00000000
00000000
00000000
00000000
7F800000
7F800000
07800000
07800000
07800000
07800000
07800000
07800000
07800000
07800000
07800000
07800000
07800000
07800000
07800000
07800000
07800000
07800000
07800000
07800000
07800000
07800000
07800000
E7000000
E7000000
E6000000
EE000000
7C000000
ENDCHAR
STARTCHAR C006B
ENCODING -1 107
SWIDTH 550 0
DWIDTH 22 0
BBX 32 40 0 -10
BITMAP
00000000
FF000000
FF000000
3C000000
3C000000
3C000000
3C000000
3C000000
3C000000
3C000000
3C000000
3C000000
3C7FC000
3C7FC000
3C0C0000
3C1C0000
3C380000
3C700000
3CE00000
3DC00000
3FC00000
3FE00000
3DF00000
3CF80000
3C7C0000
3C3E0000
3C1F0000
3C0F8000
FF9FF000
FF9FF000
00000000
00000000
00000000
00000000
00000000
00000000
00000000
00000000
00000000
00000000
ENDCHAR
STARTCHAR C006C
ENCODING -1 108
SWIDTH 300 0
DWIDTH 12 0
BBX 32 40 0 -10
BITMAP
00000000
FE000000
FE000000
1E000000
1E000000
1E000000
1E000000
1E000000
1E000000
1E000000
1E000000
1E000000
1E000000
1E000000
1E000000
1E000000
1E000000
1E000000
1E000000
1E000000
1E000000
1E000000
1E000000
1E000000
1E000000
1E000000
1E000000
1E000000
FFC00000
FFC00000
00000000
00000000
00000000
00000000
00000000
00000000
00000000
00000000
00000000
00000000
ENDCHAR
STARTCHAR C006D
ENCODING -1 109
SWIDTH 825 0
DWIDTH 33 0
BBX 32 40 0 -10
BITMAP
00000000
00000000
00000000
00000000
00000000
00000000
00000000
00000000
00000000
00000000
00000000
00000000
FE3F0FE0
FE7F9FF0
1EE7F9F0
1FC3F0F0
1F83E0F0
1F03C0F0
1E03C0F0
1E03C0F0
1E03C0F0
1E03C0F0
1E03C0F0
1E03C0F0
1E03C0F0
1E03C0F0
1E03C0F0
1E03C0F0
FF9FFBFE
FF9FFBFE
00000000
00000000
00000000
00000000
00000000
00000000
00000000
00000000
00000000
00000000
ENDCHAR
STARTCHAR C006E
ENCODING -1 110
SWIDTH 575 0
DWIDTH 23 0
BBX 32 40 0 -10
BITMAP
00000000
00000000
00000000
00000000
00000000
00000000
00000000
00000000
00000000
00000000
00000000
00000000
FE3E0000
FE7F8000
1EFFC000
1FC7C000
1F83C000
1F03C000
1F03C000
1E03C000
1E03C000
1E03C000
1E03C000
1E03C000
1E03C000
1E03C000
1E03C000
1E03C000
FFDFF800
FFDFF800
00000000
00000000
00000000
00000000
00000000
00000000
00000000
00000000
00000000
00000000
ENDCHAR
STARTCHAR C006F
ENCODING -1 111
SWIDTH 475 0
DWIDTH 19 0
BBX 32 40 0 -10
BITMAP
00000000
00000000
00000000
00000000
00000000
00000000
00000000
00000000
00000000
00000000
00000000
00000000
03E00000
0FF80000
1C1C0000
380E0000
780F0000
70070000
F0078000
F0078000
F0078000
F0078000
F0078000
F0078000
70070000
780F0000
380E0000
1C1C0000
0FF80000
03E00000
00000000
00000000
00000000
00000000
00000000
00000000
00000000
00000000
00000000
00000000
ENDCHAR
STARTCHAR C0070
ENCODING -1 112
SWIDTH 525 0
DWIDTH 21 0
BBX 32 40 0 -10
BITMAP
00000000
00000000
00000000
00000000
00000000
00000000
00000000
00000000
00000000
00000000
00000000
00000000
FE7C0000
FEFE0000
1FC70000
1F838000
1F03C000
1E01C000
1E01E000
1E01E000
1E01E000
1E01E000
1E01E000
1E01E000
1E01C000
1F03C000
1F838000
1FC70000
1EFE0000
1E7C0000
1E000000
1E000000
1E000000
1E000000
1E000000
1E000000
1E000000
1E000000
FFC00000
FFC00000
ENDCHAR
STARTCHAR C0071
ENCODING -1 113
SWIDTH 525 0
DWIDTH 21 0
BBX 32 40 0 -10
BITMAP
00000000
00000000
00000000
00000000
00000000
00000000
00000000
00000000
00000000
00000000
00000000
00000000
07CFE000
0FEFE000
1C7F0000
383F0000
781F0000
700F0000
F00F0000
F00F0000
F00F0000
F00F0000
F00F0000
F00F0000
700F0000
781F0000
383F0000
1C7F0000
0FEF0000
07CF0000
000F0000
000F0000
000F0000
000F0000
000F0000
000F0000
000F0000
000F0000
003FC000
003FC000
ENDCHAR
STARTCHAR C0072
ENCODING -1 114
SWIDTH 425 0
DWIDTH 17 0
BBX 32 40 0 -10
BITMAP
00000000
00000000
00000000
00000000
00000000
00000000
00000000
00000000
00000000
00000000
00000000
00180000
FE7C0000
FEFE0000
1EFE0000
1FBE0000
1F1C0000
1F000000
1E000000
1E000000
1E000000
1E000000
1E000000
1E000000
1E000000
1E000000
1E000000
1E000000
FFE00000
FFE00000
00000000
00000000
00000000
00000000
00000000
00000000
00000000
00000000
00000000
00000000
ENDCHAR
STARTCHAR C0073
ENCODING -1 115
SWIDTH 375 0
DWIDTH 15 0
BBX 32 40 0 -10
BITMAP
00000000
00000000
00000000
00000000
00000000
00000000
00000000
00000000
00000000
00000000
00000000
00000000
0F000000
3FE00000
71E00000
C0600000
C0200000
C0200000
F0000000
FFC00000
FFE00000
7FF00000
3FF00000
8FF80000
80780000
C0380000
C0380000
E0300000
F0700000
DFE00000
07800000
00000000
00000000
00000000
00000000
00000000
00000000
00000000
00000000
00000000
ENDCHAR
STARTCHAR C0074
ENCODING -1 116
SWIDTH 400 0
DWIDTH 16 0
BBX 32 40 0 -10
BITMAP
00000000
00000000
00000000
00000000
00000000
00000000
00000000
0F000000
0F000000
0F000000
0F000000
0F000000
FFF00000
FFF00000
0F000000
0F000000
0F000000
0F000000
0F000000
0F000000
0F000000
0F000000
0F000000
0F000000
0F000000
0F040000
0F040000
0F8C0000
0FD80000
07F00000
03E00000
00000000
00000000
00000000
00000000
00000000
00000000
00000000
00000000
00000000
ENDCHAR
STARTCHAR C0075
ENCODING -1 117
SWIDTH 575 0
DWIDTH 23 0
BBX 32 40 0 -10
BITMAP
00000000
00000000
00000000
00000000
00000000
00000000
00000000
00000000
00000000
00000000
00000000
00000000
FF1FE000
FF1FE000
0F01E000
0F01E000
0F01E000
0F01E000
0F01E000
0F01E000
0F01E000
0F01E000
0F01E000
0F01E000
0F03E000
0F03E000
0F03E000
0F07E000
0F0DF800
07FDF800
01F00000
00000000
00000000
00000000
00000000
00000000
00000000
00000000
00000000
00000000
ENDCHAR
STARTCHAR C0076
ENCODING -1 118
SWIDTH 550 0
DWIDTH 22 0
BBX 32 40 0 -10
BITMAP
00000000
00000000
00000000
00000000
00000000
00000000
00000000
00000000
00000000
00000000
00000000
00000000
FFC7F000
FFC7F000
1E00C000
0F00C000
0F01C000
0F018000
07838000
07830000
07830000
03C70000
03C60000
03C60000
01EE0000
00EC0000
00FC0000
00FC0000
00780000
00780000
00000000
00000000
00000000
00000000
00000000
00000000
00000000
00000000
00000000
00000000
ENDCHAR
STARTCHAR C0077
ENCODING -1 119
SWIDTH 750 0
DWIDTH 30 0
BBX 32 40 0 -10
BITMAP
00000000
00000000
00000000
00000000
00000000
00000000
00000000
00000000
00000000
00000000
00000000
00000000
FFC007F0
FFC107F0
1F0300C0
1F0380C0
0F0381C0
0F078180
0F87C180
078FC380
078FE300
07CDE300
07DDE700
03D9F600
03F8FE00
01F0FC00
01F07C00
01F07C00
00E07800
00E03800
00000000
00000000
00000000
00000000
00000000
00000000
00000000
00000000
00000000
00000000
ENDCHAR
STARTCHAR C0078
ENCODING -1 120
SWIDTH 525 0
DWIDTH 21 0
BBX 32 40 0 -10
BITMAP
00000000
00000000
00000000
00000000
00000000
00000000
00000000
00000000
00000000
00000000
00000000
00000000
FFDFC000
FFDFC000
1F0E0000
0F0C0000
0F980000
07D80000
07F00000
03E00000
03E00000
01F80000
01F80000
01FC0000
033C0000
063E0000
061F0000
0E1F0000
FF3FE000
FF3FE000
00000000
00000000
00000000
00000000
00000000
00000000
00000000
00000000
00000000
00000000
ENDCHAR
STARTCHAR C0079
ENCODING -1 121
SWIDTH 525 0
DWIDTH 21 0
BBX 32 40 0 -10
BITMAP
00000000
00000000
00000000
00000000
00000000
00000000
00000000
00000000
00000000
00000000
00000000
00000000
FF8FE000
FF8FE000
3E018000
1E038000
1F030000
0F030000
0F070000
0F860000
07860000
07CE0000
03CC0000
03EC0000
01FC0000
01F80000
00F80000
00F00000
00700000
00600000
00600000
00C00000
00C00000
01C00000
39800000
7B800000
7F000000
3C000000
00000000
00000000
ENDCHAR
STARTCHAR C007A
ENCODING -1 122
SWIDTH 450 0
DWIDTH 18 0
BBX 32 40 0 -10
BITMAP
00000000
00000000
00000000
00000000
00000000
00000000
00000000
00000000
00000000
00000000
00000000
00000000
3FFC0000
3FFC0000
30780000
30780000
20F00000
21F00000
21E00000
03E00000
03E00000
07C00000
07800000
0F830000
0F020000
1E020000
3E060000
3C0E0000
7FFE0000
FFFE0000
00000000
00000000
00000000
00000000
00000000
00000000
00000000
00000000
00000000
00000000
ENDCHAR
STARTCHAR C007B
ENCODING -1 123
SWIDTH 350 0
DWIDTH 14 0
BBX 32 40 0 -10
BITMAP
07E00000
0F000000
1C000000
18000000
18000000
1C000000
0E000000
0E000000
0E000000
0E000000
0E000000
1C000000
18000000
30000000
70000000
F0000000
70000000
30000000
18000000
1C000000
0E000000
0E000000
0E000000
0E000000
0E000000
1C000000
18000000
18000000
1C000000
0F000000
07E00000
00000000
00000000
00000000
00000000
00000000
00000000
00000000
00000000
00000000
ENDCHAR
STARTCHAR C007C
ENCODING -1 124
SWIDTH 150 0
DWIDTH 6 0
BBX 32 40 0 -10
BITMAP
70000000
70000000
70000000
70000000
70000000
70000000
70000000
70000000
70000000
70000000
70000000
70000000
70000000
70000000
70000000
70000000
70000000
70000000
70000000
70000000
70000000
70000000
70000000
70000000
70000000
70000000
70000000
70000000
70000000
70000000
70000000
70000000
00000000
00000000
00000000
00000000
00000000
00000000
00000000
00000000
ENDCHAR
STARTCHAR C007D
ENCODING -1 125
SWIDTH 325 0
DWIDTH 13 0
BBX 32 40 0 -10
BITMAP
FC000000
1E000000
07000000
03000000
03000000
07000000
0E000000
0E000000
0E000000
0E000000
0E000000
07000000
03000000
01800000
01C00000
01E00000
01C00000
01800000
03000000
07000000
0E000000
0E000000
0E000000
0E000000
0E000000
07000000
03000000
03000000
07000000
1E000000
FC000000
00000000
00000000
00000000
00000000
00000000
00000000
00000000
00000000
00000000
ENDCHAR
STARTCHAR C007E
ENCODING -1 126
SWIDTH 425 0
DWIDTH 17 0
BBX 32 40 0 -10
BITMAP
00000000
00000000
00000000
00000000
00000000
00000000
00000000
00000000
00000000
00000000
00000000
00000000
00000000
00000000
00000000
00000000
1C060000
3E060000
7F060000
7F8E0000
E7CE0000
E3FC0000
C1FC0000
C0F80000
C0700000
00000000
00000000
00000000
00000000
00000000
00000000
00000000
00000000
00000000
00000000
00000000
00000000
00000000
00000000
00000000
ENDCHAR
STARTCHAR C007F
ENCODING -1 127
SWIDTH 0 0
DWIDTH 0 0
BBX 0 40 0 -10
BITMAP
00
00
00
00
00
00
00
00
00
00
00
00
00
00
00
00
00
00
00
00
00
00
00
00
00
00
00
00
00
00
00
00
00
00
00
00
00
00
00
00
ENDCHAR
ENDFONT
